<svg width="1495" height="1289" viewBox="0 0 1495 1289" fill="none" xmlns="http://www.w3.org/2000/svg">
<g clip-path="url(#clip0_518_297)">
<path d="M1282.75 471.48L1399.59 374.26L1461.01 354.39L1490.69 300.97L1437.53 209.36L1396.69 231.23L1359.33 240.32L1340.23 284.45L1295.23 313.64L1315.27 347.52L1279.85 334.64L1300.07 385.84L1263.4 396.48L1282.75 471.48Z" fill="#780500"/>
<path d="M643.27 544.84L566.04 590.71L555.59 619.74L523.07 626.71L509.14 654.58L463.85 651.1L423.2 580.26L432.49 519.87L499.85 501.29L579.98 425.81L584.04 424.06L589.85 518.71L643.27 544.84Z" fill="#780500"/>
<path fill-rule="evenodd" clip-rule="evenodd" d="M816.6 337.55H732.06L630.75 388.65L708.84 508.26L655.46 539.62L613.65 584.91L654.3 699.91L797.14 826.49L946.94 833.49L1065.39 677.88L1104.88 598.88L1238.43 526.88L1203.2 445.2L1167.83 453.6L1127.33 456.36L1057.39 508.95L1031.33 491.39L1020.74 495.53L1021.26 518.75C1021.26 518.75 961.26 547.01 960.1 547.75C958.94 548.49 953.91 513.5 953.91 513.5L936.04 516.4L898.17 500.69L928.36 467.63L940.55 465.88L889.46 405.43L823.91 380.66L841.84 342.21L809.14 346.85L816.6 337.55Z" fill="#2484C6"/>
<path fill-rule="evenodd" clip-rule="evenodd" d="M925.44 470.82L833.14 469.16L753.4 506.32L683.72 585.48L698.43 728.52L857.14 792.77L1007.23 731.87L1056.71 646.97L1062.01 565.93L1021.27 518.71L960.11 547.74L953.91 513.48L934.07 517.55L898.17 500.67L925.44 470.82Z" fill="#43ADE8"/>
<path fill-rule="evenodd" clip-rule="evenodd" d="M937.941 506.95L884.321 512.16L845.771 553.09L840.351 617.75L887.781 679.11L964.401 679L1023.02 634.47L1028.22 568.83L994.571 525.28L937.941 506.95Z" fill="white"/>
<path d="M820.82 352L808.43 374.71L747.72 382.84L726.3 412.9L655.33 426.84L630.79 388.64L732.11 337.55L797.59 331.1L832.69 326.71L820.82 352Z" fill="#43ADE8"/>
<path d="M1072.43 495.48L1139.27 430.45L1156.82 428.9L1189.85 421.68L1223.85 491.87L1145.4 515.23L1072.43 495.48Z" fill="#43ADE8"/>
<path d="M834.02 273.36L797.35 329.53L829.96 324.22L807.49 371.14L947.16 423.09L1041.93 438.19L1154.86 431.77L1300.3 386.87L1280.49 335.97L1314 346.71L1278.49 285.48L1325.81 241.93L1318.86 195.42L1293.86 222.7L1316.31 180.66L1179.99 20.7198L1134.46 9.25977L1115.86 75.0698L992.14 74.4898L839.38 35.5898L794.64 43.8498L826.09 133.81L801.17 164.91L814.8 195.41L799.14 179.47L788.24 224.02L834.02 273.36Z" fill="#CA3C27"/>
<path d="M836.14 275.13L890.31 193.68L866.09 179.08L893.05 173.75L892.3 136.92L911.71 158.79L920.83 144.86L953.17 119.48L956.31 84.5097L838.69 38.3896L794.93 43.6596L826.38 133.62L801.46 164.71L815.09 195.21L799.43 179.27L788.53 223.82L836.14 275.13Z" fill="#FDE6D5"/>
<path d="M1135.53 9.42969L1169.59 108.92L1188.25 120.24L1187.88 88.3197L1252.62 160.18L1268.86 195.47L1235.72 224.01L1279.56 285.66L1326.88 242.11L1319.93 195.59L1301.36 215.87L1317.38 180.84L1181.06 20.8997L1135.53 9.42969Z" fill="#FDE6D5"/>
<path d="M1164.07 165.58L1165.93 206.34L1184.65 206.67L1187.08 183.58L1164.07 165.58Z" fill="#FDE6D5"/>
<path d="M1111.81 156.85L1121.32 214.93L1157.51 204.75L1154.96 148.62L1111.81 156.85Z" fill="#FDE6D5"/>
<path d="M1049.84 203.22L1088.81 215.59L1093.81 157.02L1051.43 148.21L1049.84 203.22Z" fill="#FDE6D5"/>
<path d="M944.02 229.63L861.95 312.16L882.87 312.89L859.75 336.98L883.19 399.63L947.45 422.89L955.19 422.74L908.66 343.34L944.02 229.63Z" fill="#FDE6D5"/>
<path d="M1177.84 422.93L1242.73 404.5L1271.32 331.13L1260.37 313.06L1279.27 313.41L1204.06 229.03L1231.18 341.81L1177.84 422.93Z" fill="#FDE6D5"/>
<path d="M636.76 397.94L584.04 424.06L589.85 518.71L643.27 544.84L708.88 508.26L636.76 397.94Z" fill="#CA3C27"/>
<path d="M1191.4 421.68L1233.46 511.23L1282.75 470.45L1267.27 400L1191.4 421.68Z" fill="#CA3C27"/>
<path d="M615.46 592.39L482.24 738.19L501.59 746.32L493.46 837.48L585.2 870.58L656.62 809.03L671.72 831.1L637.46 879.29L681.01 947.81L787.85 938.52L873.78 868.26L884.24 867.1L919.46 831.1L797.14 826.45L654.3 699.87L615.46 592.39Z" fill="#CA3C27"/>
<path d="M656.62 809.03L585.2 870.58L562.24 873.48L542.82 920.52L617.14 969.29L641.52 953.03L679.85 975.1L747.2 972.77L787.85 938.52L681.01 947.81L637.46 879.29L671.72 831.1L656.62 809.03Z" fill="#780500"/>
<path d="M483.53 736.79L467.33 754.45L393.01 791.61L331.46 856.64L338.43 904.26L401.14 946.07L447.59 934.45L495.2 884.52L585.2 870.58L493.46 837.48L501.59 746.32L483.53 736.79Z" fill="#780500"/>
<path d="M584.04 424.06L586.81 469.16L623.66 464.71L657.78 430.65L636.76 397.94L584.04 424.06Z" fill="#EB6337"/>
<path d="M997.46 75.6096L1112.74 136.05L1116.15 74.8696L997.46 75.6096Z" fill="#EB6337"/>
<path d="M1039.73 156.05L1017.54 176.06L1021.3 202.31L1041.45 203.39L1039.73 156.05Z" fill="#FDE6D5"/>
<path d="M1187.08 183.58L1173.68 200.6L1164.07 165.58L1165.38 210.91L1184.65 206.67L1187.08 183.58Z" fill="#EEBC92"/>
<path d="M1121.32 214.93L1157.51 204.75L1154.96 148.62L1141.35 197.03L1119.7 205.28L1121.32 214.93Z" fill="#EEBC92"/>
<path d="M1089.59 206.47L1066.76 197.39L1051.43 148.21L1049.84 203.22L1088.81 215.59L1089.59 206.47Z" fill="#EEBC92"/>
<path d="M1021.3 202.31L1041.45 203.39L1039.73 156.05L1032.65 195.5L1017.54 176.06L1021.3 202.31Z" fill="#EEBC92"/>
<path d="M1260.37 313.06L1237.03 374.03L1203.41 386.82L1182.02 419.93L1243.64 402.15L1271.46 331.19L1260.37 313.06Z" fill="#EEBC92"/>
<path d="M935.32 389.84L893.57 372.3L878.31 336.02L882.87 312.89L859.75 336.98L883.19 399.63L947.45 422.89L955.19 422.74L935.32 389.84Z" fill="#EEBC92"/>
<path d="M1196.09 96.4097L1287.42 183.61L1272.33 240.96L1278.91 281.87L1276.21 284.76L1235.72 224.01L1268.86 195.47L1252.62 160.18L1196.09 96.4097Z" fill="#EEBC92"/>
<path d="M837.48 270.19L891.97 195.92L864.18 179.5L895.891 172.47L894.37 139.26L911.711 158.79L926.55 151.69L953.201 119.4L922.11 128.83L852.29 84.4297L860.99 144.27L833.391 170.9L832.23 227.97L837.48 270.19Z" fill="#EEBC92"/>
<path d="M839.281 352.79L914.881 163.91L911.001 153.58L892.301 136.92L895.891 172.47L860.751 176.98L891.971 195.92L797.641 329.34L830.251 324.03L807.781 370.95L884.411 397.41L839.281 352.79Z" fill="#EB6337"/>
<path d="M1208.3 167.88L1228.64 147.12L1222.45 180.54L1255.13 188.39L1228.31 202.1L1314.29 346.51L1280.78 335.77L1300.59 386.67L1242.83 401.03L1273.2 370.84L1264.1 350.12L1271.32 331.13L1260.37 313.06L1279.27 313.41L1235.53 263.9L1208.3 167.88Z" fill="#EB6337"/>
<path d="M1007.62 318L984.05 358.85L1026.19 424.58L1048.08 437.56L1118 432.33L1184.28 378.84L1191.48 333.33L1166.14 312.52L1163.67 304.76L1148.29 296.91L1177.92 291.4L1185.07 281.42L1196.23 274.06L1173.01 245.32L1135.63 252.38L1124.11 279.29L1127.32 288.13L1086.02 288.05L1067.77 253.67L1027.27 242.52L995.45 272.52L1005.76 279.92L1014.4 289.7L1051.02 300.99L1007.62 318Z" fill="#FDE6D5"/>
<path d="M1117.17 260.44L1086.26 261.52L1086.02 288.05L1127.32 288.13L1117.17 260.44Z" fill="#EB6337"/>
<path d="M1163.62 304.31L1138.02 308.09L1109.62 301.89L1086.02 288.05L1127.32 288.13L1163.57 303.24L1163.62 304.31Z" fill="#CA3C27"/>
<path d="M1136.78 404.01L1174.64 374.58L1183.75 351.36L1188.56 351.78L1184.28 378.84L1118 432.33L1045.34 436.45L1026.19 424.58L983.96 358.69L1033.61 350.42L1077.14 403.15L1136.78 404.01Z" fill="#EEBC92"/>
<path d="M1007.23 318.01L1071.76 292.69L1042.88 318.74L1007.23 318.01Z" fill="#EEBC92"/>
<path d="M1005.64 279.93L1030.83 256.91L1058.72 264.98L1071.89 292.56L1050.63 300.96L1013.99 289.86L1005.64 279.93Z" fill="#2E100D"/>
<path d="M1054.68 268.84L1031.89 262.26L1016.52 276.61L1022.7 292.48L1045.82 299.49L1061.6 288.48L1054.68 268.84Z" fill="#771213"/>
<path d="M1131.51 289.9L1148.29 296.91L1177.6 291.89L1185.15 281.42L1167.24 259.81L1143.46 263.2L1131.51 289.9Z" fill="#2E100D"/>
<path d="M1164.3 264.68L1176.33 277.98L1171.12 292.98L1148.45 296.98L1143.49 294.92L1137.54 284.58L1147.1 266.86L1164.3 264.68Z" fill="#771213"/>
<path d="M1104.88 598.84L1065.4 677.81L954.2 823.88L996.29 834.59L996.88 896.13L957.4 937.93L1037.53 929.81L1155.98 831.1L1185.01 703.55L1172.04 561.68L1104.88 598.84Z" fill="#D71D24"/>
<path d="M816.69 301.94L798.88 330.84L732.11 337.55L630.79 388.64L636.76 397.94L579.98 425.81L499.85 501.29L432.49 519.87L431.46 526.55L315.2 516.39L175.98 585.66L187.46 460.64L247.85 430.45L334.56 439.74L439.46 365.42L612.49 368.32L731.01 297.81L816.69 301.94Z" fill="#D71D24"/>
<path d="M429.42 591.1L386.04 582.58L315.2 516.39L431.46 526.55L423.2 580.26L429.42 591.1Z" fill="#96111B"/>
<path d="M557.54 614.33L566.04 590.71L643.27 544.84L642.42 553.74L613.65 584.9L615.46 592.39L591.24 618.89L557.54 614.33Z" fill="#96111B"/>
<path d="M1132.48 583.57L1104.88 598.84L1065.4 677.81L954.2 823.88L996.29 834.59L996.88 896.13L1110.69 778.84L1132.48 583.57Z" fill="#B72126"/>
<path d="M1128.65 585.69L1069.61 782.93L997.07 835.29L954.2 823.88L1065.4 677.81L1099.78 600.26L1128.65 585.69Z" fill="#96111B"/>
<path d="M1177.65 649.03L1138.43 795.61L1055.09 836.14L957.4 937.93L1037.53 929.81L1155.98 831.1L1185.01 703.55L1177.65 649.03Z" fill="#F26651"/>
<path d="M182.811 537.25L326.811 458.32L421.271 488.81L518.521 409.16L395.721 445.26L247.851 430.45L187.461 460.64L182.811 537.25Z" fill="#F26651"/>
<path d="M712.43 310.45L807.65 320.77L819.53 302.71L731.78 296.26L712.43 310.45Z" fill="#F26651"/>
<path d="M886.62 401.03L940.56 465.87L928.36 467.61L898.17 500.67L934.07 517.55L953.91 513.48L960.11 547.74L1021.27 518.71L1020.74 495.48L1031.33 491.35L1057.4 508.9L1137.46 432.26L1042.75 440.77L947.27 424.77L886.62 401.03Z" fill="#D71D24"/>
<path d="M591.24 618.89L467.33 754.45L448.93 760.88L269.91 778.84L109.65 718.45L52.1699 602.32L95.1399 507.68L186.61 474.58L177.01 574.45L315.2 516.39L386.04 582.58L429.42 591.1L463.85 651.1L509.14 654.58L523.07 626.71L555.59 619.74L557.54 614.33L591.24 618.89Z" fill="#CA3C27"/>
<path d="M532.28 682.47L453.52 696L379.2 701.16L321.71 706.22L238.94 698.07L179.33 673.56L124.75 648.52L161.91 544.84L182.81 537.25L179.39 583.51L229.97 558.79L288.88 588.13L351.33 613.42L404.62 619.61L447.85 623.74L463.85 651.1L509.14 654.58L518.52 635.64L569.96 642.18L532.28 682.47Z" fill="#ED6338"/>
<path d="M315.2 516.39L386.04 582.58L429.42 591.1L447.85 623.74L351.33 613.42L288.88 588.13L229.97 558.79L315.2 516.39Z" fill="#780500"/>
<path d="M518.521 635.64L569.961 642.18L591.24 618.89L557.54 614.33L555.591 619.74L523.07 626.71L518.521 635.64Z" fill="#780500"/>
<path d="M610.04 673.56L533.52 731.04L510.29 804.9L587.2 867.61L656.62 809.03L609.01 732.39L610.04 673.56Z" fill="#ED6338"/>
<path d="M710.64 844.88L689.91 896.13L699.72 927.23L790.3 935.61L873.78 868.26L783.2 870.58L710.64 844.88Z" fill="#ED6338"/>
<path d="M615.2 596.13L637.27 708.21L781.85 839.04L915.58 834.4V831.19L797.14 826.45L654.3 699.87L615.2 596.13Z" fill="#780500"/>
<path d="M1069.61 782.93L1128.65 585.69L1110.69 778.84L996.88 896.13L996.69 835.61L1069.61 782.93Z" fill="#B72126"/>
<path fill-rule="evenodd" clip-rule="evenodd" d="M59.9899 974.47L1.91992 1037.18L69.2799 988.4L227.99 845.95L59.9899 974.47Z" fill="#EAEAEA"/>
<path fill-rule="evenodd" clip-rule="evenodd" d="M697.92 1161.05L865.92 996.15L686.31 1150.98L640.63 1202.86L697.92 1161.05Z" fill="#EAEAEA" stroke="white" stroke-miterlimit="10"/>
<path fill-rule="evenodd" clip-rule="evenodd" d="M431.6 1235.37L382.11 1289.2L442.44 1242.34L562.44 1123.89L431.6 1235.37Z" fill="#EAEAEA" stroke="white" stroke-miterlimit="10"/>
<path fill-rule="evenodd" clip-rule="evenodd" d="M207.09 1254.73L474.18 1024.79L200.12 1243.89L148.01 1288.84L207.09 1254.73Z" fill="#EAEAEA" stroke="white" stroke-miterlimit="10"/>
<path d="M1031.33 491.35L1057.72 507.1L1113.98 451.75L1066.56 465.87L1031.33 491.35Z" fill="#F26651"/>
<path d="M987.2 492.58L934.17 495.74L912.75 485.87L899.47 499.25L934.07 517.55L984.11 504.77L987.2 492.58Z" fill="#F26651"/>
<path d="M1032.84 481.1C1032.58 481.49 1028.62 490.71 1028.62 490.71L999.62 502.07L988.78 493.16L1013.78 483.33L1019.11 463.22L1039.71 461.68L1032.84 481.1Z" fill="#F26651"/>
<path d="M1020.74 495.48L1021.85 518.71L959.72 547.74L970.94 540.15L999.82 502.45L1020.74 495.48Z" fill="#F26651"/>
<path d="M926.61 151.63L852.48 84.3599L868.44 145.79L845.78 183.23L878.14 215.13L894.41 192.46L866.08 178.69L897.45 172.89L895.26 141.18L914.94 163.85L926.61 151.63Z" fill="#401714"/>
<path d="M1208.09 169.37L1201.44 156.51L1187.95 88.1899L1253.48 158.03L1272.84 196.35L1240.48 223.47L1228.21 201.48L1254.25 189.38L1222.08 181.77L1228.11 147.83L1208.09 169.37Z" fill="#401714"/>
<path fill-rule="evenodd" clip-rule="evenodd" d="M467.06 752.84L454.62 695.16L473.2 652.59L509.2 654.52L491.07 690.19L497.66 722.17L467.06 752.84Z" fill="#401714"/>
<path fill-rule="evenodd" clip-rule="evenodd" d="M392.66 766.47L341.58 772.97L322.43 706.07L352.94 613.91L387.16 583.51L432.16 593.75L403.52 620.07L377.97 701.22L392.66 766.47Z" fill="#401714"/>
<path fill-rule="evenodd" clip-rule="evenodd" d="M362.101 561.62L288.161 588.71L239.001 697.88L271.521 779.16L203.781 752.84L179.391 673.88L232.811 562L270.751 535.03L317.361 516.56L362.101 561.62Z" fill="#401714"/>
<path fill-rule="evenodd" clip-rule="evenodd" d="M180.16 539.16L161.58 546.13L124.42 648.71L144.16 732.33L109.71 718.39L52.2305 602.26L95.2005 507.62L185.92 478L180.16 539.16Z" fill="#401714"/>
<path d="M953.86 421.15L908.34 343.87L944.14 229.69L971.29 297.68L1007.71 317.71L984.14 358.59L1026.52 424.32L1048.19 436.33" fill="#401714"/>
<path d="M1112.34 432.7L1184.43 378.29L1191.46 333.26L1166.17 312.52L1163.56 304.18L1207.38 283.97L1203.85 228.58L1232.38 342.7L1181.98 419.96L1155.94 429.43L1115.31 430.45" fill="#401714"/>
<path d="M1025.65 277.66L1035.74 268.13L1049.69 272.03L1053 285.16L1042.94 293.23L1029.34 289.28L1025.65 277.66Z" fill="#2E100D"/>
<path d="M1143.22 282.81L1150.3 292.82L1162.93 290.54L1167.64 279.69L1160.28 269.88L1149.53 271.11L1143.22 282.81Z" fill="#2E100D"/>
<path d="M838.561 38.1299L997.011 76.8999L956.381 86.1199L838.561 38.1299Z" fill="#780500"/>
<path d="M1135.53 9.42969L1118.11 78.6497L1169.59 108.92L1135.53 9.42969Z" fill="#780500"/>
<path d="M971.63 549.97C975.09 551.964 978.023 554.756 980.185 558.113C982.347 561.47 983.676 565.295 984.06 569.27C984.742 576.009 983.346 582.796 980.06 588.72C977.725 593.425 974.772 597.797 971.28 601.72C967.359 606.232 962.159 609.448 956.37 610.94C954.966 611.352 953.541 611.686 952.1 611.94C950.68 612.16 949.27 612.17 947.72 612.27C947.22 615.16 946.72 618.12 946.23 621.14L924.64 624.14C925.26 620.54 925.87 617.08 926.47 613.62C927.07 610.16 927.78 606.92 928.4 603.51C928.5 602.96 928.4 602.72 927.99 602.51C924.99 600.79 921.99 599 918.99 597.2C912.83 608.09 906.99 618.89 901.15 629.84C895.8 626.69 882.42 619.06 882.42 619.06L937.42 530.95L971.63 549.97ZM929.26 579.82C929.419 579.951 929.59 580.068 929.77 580.17C934.09 582.73 938.38 585.32 942.69 587.84C944.097 588.62 945.574 589.27 947.1 589.78C948.42 590.264 949.826 590.475 951.23 590.4C952.635 590.324 954.009 589.963 955.27 589.34C958.372 587.607 960.85 584.941 962.35 581.72C963.812 579.371 964.356 576.565 963.88 573.84C963.56 572.466 962.959 571.174 962.113 570.044C961.268 568.915 960.198 567.974 958.97 567.28C953.97 564.17 948.76 561.12 943.58 558.05C943.46 557.98 943.29 557.93 943.12 557.84C938.42 565.15 933.84 572.43 929.26 579.84" fill="#ED1C24"/>
<path d="M924.86 648.78L932.86 647.45L947.56 644.95C948.14 644.81 948.37 645.04 948.56 645.6C950.056 649.14 950.405 653.06 949.56 656.81C949.46 657.41 949.43 658 949.35 658.69L946.42 659.37L939.5 660.97C939.119 661.05 938.721 660.989 938.38 660.8C935.38 659.006 932.38 657.186 929.38 655.34C929.237 655.281 929.112 655.184 929.02 655.06L924.86 648.78Z" fill="#ED1C24"/>
<path d="M945.76 627.81C946.03 631.48 946.3 635.11 946.58 638.81L923.46 642.26C923.55 638.49 923.65 634.78 923.76 630.98L945.76 627.81Z" fill="#ED1C24"/>
<path d="M1083.98 627.1L1061.15 675.31L944.611 828.42L799.091 821.65L658.491 697.05L620.621 585.29L664.361 536.26L650.951 539.87L608.061 583.75L650.111 702.69L795.191 831.25L950.041 840.26L1069.64 680.3L1091.2 629.93L1120.94 550.45L1083.98 627.1Z" fill="#310401"/>
<path d="M1104.11 590.71L1230.88 525.87L1187.45 423.38L1196.49 420.13L1242.94 528.77L1097.91 608L1104.11 590.71Z" fill="#310401"/>
<path d="M784.36 480L715.331 526.71L626.021 387.35L734.82 331.55L801.201 324.39L800.43 333.1L735.3 342.19L641.141 388.64L717.01 515.36L772.56 480.58L810.88 462.77L784.36 480Z" fill="#310401"/>
<path d="M713.401 515.1L569.251 593.39L558.541 623.12L525.741 630.15L511.471 658.7L461.481 654.85L418.561 580.39L427.071 515.87L499.071 498.84L577.721 422.54L633.991 394.99L640.111 405.29L584.621 428.52L501.831 504.81L435.991 522.98L427.291 579.5L466.941 647.74L506.811 650.47L520.411 623.27L552.631 616.36L562.841 588.03L706.921 504.86L713.401 515.1Z" fill="#2E100D"/>
<path d="M1292.23 305.29L1336.62 280L1355.72 234.32L1395.72 226.84L1437.27 204.39L1495.07 299.61L1464.36 358.19L1401.51 377.76L1236.23 517.42L1230.04 506.58L1397.66 370.76L1458.33 351.13L1484.23 301.42L1436.03 214.61L1399.07 235.87L1362.16 243.68L1343.37 287.08L1299.88 315.79L1292.23 305.29Z" fill="#2E100D"/>
<path d="M728.88 288.52L820.49 294.45L813.531 307.1L733.47 300.99L616.62 369.29L571.98 385.03L728.88 288.52Z" fill="#310401"/>
<path d="M503.981 409.81L395.201 442.58L249.911 420.39L181.271 456L170.311 593.94L316.091 521.4L430.021 534.02L431.101 524.3L314.311 511.37L181.651 577.38L192.081 463.8L248.761 435.46L395.801 450.51L458.691 431.82L555.591 397.94L503.981 409.81Z" fill="#310401"/>
<path d="M659.19 812L586.43 876.39L497.65 888.26L450.94 940.9L402.69 953.29L329.65 909.42L323.46 851.87L390.82 785.55L464.93 751.26L612.5 590.38L618.17 596.9L472.36 757.42L395.38 794.81L335.62 857.96L342.06 901.96L401.87 941.84L445.53 930.92L493.27 880.86L585.21 865.73L654.05 806.07L659.19 812Z" fill="#2E100D"/>
<path d="M612.361 730.45L674.941 827.06L783.941 865.67L882.141 862.28L908.211 832.39L920.601 834.84C923.701 835.36 886.361 871.84 886.361 871.84L782.421 875.5L668.361 835.87L604.061 733.77L610.271 655.62L612.361 730.45Z" fill="#310401"/>
<path d="M622.62 907.6L626.43 948.99L677.53 982.71L751.07 977.81L877.78 868.39L861.78 867.1L745.37 967.95L681.11 970.16L635.71 943.14L632.36 906.7L622.94 857.81L622.62 907.6Z" fill="#310401"/>
<path d="M643.72 955.1L617.65 976.26L534.3 925.16L553.4 876.9L569.56 875.22L547.87 919.14L617.12 964.59L639.35 949.77L643.72 955.1Z" fill="#2E100D"/>
<path d="M1139.2 433.29L1060.11 513.93L1028.65 493.75L1032.46 487.92L1058.43 502.06L1132.23 431.74L1139.2 433.29Z" fill="#310401"/>
<path d="M1039.07 440.9L1043.59 459.87L1031.55 493.86L999.2 506.43L972.11 482.71L986.04 429.94L996.88 432.77L981.4 479.23L1000.88 498.71L1027.2 487.23L1034.69 461.23L1026.56 439.48L1039.07 440.9Z" fill="#310401"/>
<path d="M956.36 513.68L963.07 541.42L1017.01 516.26L1017.08 494.89L1025.2 493.81L1023.2 521.29L955.27 552.9L951.33 515.1L956.36 513.68Z" fill="#310401"/>
<path d="M983.53 461.76L930.08 470.86L904.88 497.03L935.85 515.36L981.53 501.84L985.52 491.87L990.43 493.55L985.65 507.1L935.59 522.84L891.12 501.22L928.36 462.77L982.3 456.52L983.53 461.76Z" fill="#310401"/>
<path d="M937.011 465.68L885.141 403.87L898.951 406.71L943.461 464.13L937.011 465.68Z" fill="#310401"/>
<path d="M935.981 497.25L976.881 486.45L974.071 479.83L934.491 492.65L926.891 497.65L935.981 497.25Z" fill="#2E100D"/>
<path d="M437.27 357.42L325.53 435.36L339.46 440.52L442.69 368.26L600.49 372.13L611.53 364.26L437.27 357.42Z" fill="#310401"/>
<path d="M1135.33 583.23L1112.11 783.48L967.65 932.95L1035.93 926.02L1152.45 828.92L1181.04 706.57L1167.81 563.98L1174.04 563.36L1190.82 706.84L1161.14 834.58L1039.85 937.81L945.65 943.23L1103.07 778.84L1126.52 585.66L1135.33 583.23Z" fill="#2E100D"/>
<path d="M958.45 820.81L999.15 833.76L1000.36 894.45L991.07 898.58L989.53 840L953.65 830.45L958.45 820.81Z" fill="#310401"/>
<path d="M1404.92 248.47L1421.4 300.26L1389.91 316.52L1359.91 276.58L1366.49 272.81L1390.76 310.06L1414.59 297.08L1400.94 251.29L1404.92 248.47Z" fill="#2E100D"/>
<path d="M1416.49 299.94L1462.82 352.9L1459.65 355.36L1410.17 303.1L1416.49 299.94Z" fill="#2E100D"/>
<path fill-rule="evenodd" clip-rule="evenodd" d="M345.58 906.97L371.21 882.32L353.14 912.39L345.58 906.97Z" fill="#2E100D"/>
<path fill-rule="evenodd" clip-rule="evenodd" d="M380.391 932.62L406.021 907.97L388.361 937.68L380.391 932.62Z" fill="#2E100D"/>
<path fill-rule="evenodd" clip-rule="evenodd" d="M1439.85 327.29L1458.43 294.13L1434.04 322.39L1439.85 327.29Z" fill="#2E100D"/>
<path fill-rule="evenodd" clip-rule="evenodd" d="M1414.49 285.61L1432.88 258.52L1411.78 276.32L1414.49 285.61Z" fill="#2E100D"/>
<path fill-rule="evenodd" clip-rule="evenodd" d="M534.43 607.87L504.05 626.81L527.07 599.23L534.43 607.87Z" fill="#2E100D"/>
<path fill-rule="evenodd" clip-rule="evenodd" d="M561.96 932.75L581.43 914.02L567.85 936.9L561.96 932.75Z" fill="#2E100D"/>
<path fill-rule="evenodd" clip-rule="evenodd" d="M593.561 953.07L613.031 934.34L599.331 957.55L593.561 953.07Z" fill="#2E100D"/>
<path d="M185.22 481.79L98.0002 510.86L56.5102 602.25L112.48 715.32L270.44 774.84L454.75 756.35L455.07 762.32L268.24 787.36L104.62 726.71L41.9102 603.87L91.9802 497.55L182.74 474.34L185.22 481.79Z" fill="#2E100D"/>
<path d="M324.49 515.87L387.7 579.37L428.16 587.68L426.76 594.51L384.38 585.8L312.82 518.93L324.49 515.87Z" fill="#310401"/>
<path fill-rule="evenodd" clip-rule="evenodd" d="M1307.67 390.15L1156.85 434.78L1042 443.38L946.11 428.09L799.67 375.75C799.67 375.75 822.98 329.75 822.67 329.75L788.28 334.85L894.44 192.3C894.44 192.3 814.44 320.74 810.61 322.46L839.12 317.82L816.02 370.08L948.82 417.71L1042.5 432.64L1154.96 424.22L1293.55 383.22L1278.41 344.33L1272.06 327.6C1272.06 327.6 1302.06 336.88 1302.78 337.16C1302.6 336.68 1226.59 198.68 1226.59 198.68L1325.11 353.42C1325.11 353.42 1292.11 344.75 1289.43 343.95C1289.73 344.51 1307.67 390.15 1307.67 390.15Z" fill="#2E100D"/>
<path d="M831.59 278.45L781.01 229.94L793.4 171.35L804.36 183.06L795.46 161.81L817.91 135.23L784.75 35.81L841.27 23.61L999.07 66.06L1107.46 68.64L1131.2 0L1183.07 11.23L1321.65 174.45L1314.41 194.68L1323.98 185.81L1328.62 244.39L1283.72 291.1L1276.12 282.4L1321.91 240.26L1316.52 204.19L1284.92 240.31L1310.56 178.84L1178.12 24.03L1137.49 13.8L1119.12 79.23L995.4 77.37L839.56 39.4L800.12 46.69L830.85 136.2L805.99 165.44L820.52 201.39L832.1 230.02L813.73 205.19L801.25 188.33L792.84 222.71L839.01 272.46L831.59 278.45Z" fill="#2E100D"/>
<path d="M1041.82 332.5L1045.08 344.92L1093.22 360.88L1129.13 351.31L1132.16 348.15L1131.92 333.32L1104.09 309.94L1110.12 301.88L1137.39 307.26L1163.56 304.28L1166.28 312.55L1140.43 333.08L1139.97 348.38L1143.07 351.27L1165.99 360.27L1178.1 351.32L1178.88 342.01L1183.05 342.41L1183.72 351.23L1164.98 367.75L1136.63 358.84L1093.68 369.68L1043.27 349.96L1033.47 350.29L1036.31 332.9L1041.82 332.5Z" fill="#2E100D"/>
<path d="M1025.69 277.47L1029.23 289.13L1042.79 293.26L1052.95 285.31L1049.81 272.14L1035.87 268.06L1025.69 277.47Z" stroke="#2E100D" stroke-miterlimit="10"/>
<path d="M1149.47 271.27L1143.22 282.72L1150.29 292.74L1162.93 290.45L1167.64 279.61L1160.28 269.79L1149.47 271.27Z" stroke="#2E100D" stroke-miterlimit="10"/>
<path d="M1042.81 281.22L1050.85 283.41L1057.65 277.43L1054.7 268.86L1048 266.93L1041.14 272.85L1042.81 281.22Z" fill="#FDE6D5"/>
<path d="M1166.71 279.37L1170.27 271.29L1164.35 264.65L1157.48 265.5L1152.96 274.19L1158.54 280.68L1166.71 279.37Z" fill="#FDE6D5"/>
<path d="M557.156 614.5L556.552 619.103L590.677 623.584L591.282 618.981L557.156 614.5Z" fill="#2E100D"/>
</g>
<defs>
<clipPath id="clip0_518_297">
<rect width="1495" height="1289" fill="white"/>
</clipPath>
</defs>
</svg>
